<svg id="Layer_1" data-name="Layer 1" xmlns="http://www.w3.org/2000/svg" viewBox="0 0 589.2245 497"><defs><style>.cls-1{fill:#e8f0f7;}.cls-2{fill:#d2def2;}.cls-3{fill:#c5d6e0;}.cls-4{fill:#6fa2ba;}.cls-5{fill:#f8c0ac;}.cls-6{fill:#384e83;}.cls-7,.cls-8{fill:#232666;}.cls-7{stroke:#232666;stroke-width:0.7365px;}.cls-20,.cls-32,.cls-7{stroke-miterlimit:10;}.cls-17,.cls-9{fill:#024c88;}.cls-9{stroke:#024c88;stroke-linecap:round;stroke-linejoin:round;stroke-width:0.1429px;}.cls-10{fill:#151f60;}.cls-11{fill:#455a91;}.cls-12{fill:#364b7f;}.cls-13{fill:#2d2e75;}.cls-14{fill:#152654;}.cls-15{fill:#0e1a42;}.cls-16{opacity:0.5;}.cls-18{fill:#222f63;}.cls-19{fill:#4c8899;}.cls-20,.cls-32{fill:none;stroke:#8baeda;}.cls-20{stroke-width:2.7988px;}.cls-21{fill:#e2edf7;}.cls-22{fill:#7583a3;opacity:0.6;isolation:isolate;}.cls-23{fill:#fff;}.cls-24{fill:#f1737d;}.cls-25{fill:#ae3e45;}.cls-26{fill:#e4525b;}.cls-27{fill:#aecff0;}.cls-28{fill:#82b2fc;}.cls-29{fill:#8baeda;}.cls-30{fill:#5f86b5;}.cls-31{fill:#265991;}.cls-32{stroke-width:0.5892px;}.cls-33{fill:#272e5b;}.cls-34{fill:#f06976;}.cls-35{fill:#ef9e7f;}.cls-36{fill:#d05467;}.cls-37{fill:#c44b62;}.cls-38{fill:#a33248;}.cls-39{fill:#074675;}.cls-40{fill:#434e83;}.cls-41{fill:#bcc4c2;}.cls-42{fill:#1e254f;}.cls-43{fill:#0e1438;}.cls-44{fill:#303377;}.cls-45{fill:#5785a8;}.cls-46{fill:#7da2cc;}.cls-47{fill:#6f9dba;}.cls-48{fill:#4f7a99;}.cls-49{fill:#285972;}.cls-50{fill:#fcfcfc;}.cls-51{fill:#223d72;}.cls-52{fill:#88c4d8;}.cls-53{fill:#40788a;}.cls-54{fill:#033860;}.cls-55{fill:#668db4;}.cls-56{fill:#346ebf;}.cls-57{fill:#10284f;}</style></defs><title>Accounts Payable Automation Team</title><g id="Layer_2" data-name="Layer 2"><g id="Layer_1-2" data-name="Layer 1-2"><ellipse class="cls-1" cx="219.5445" cy="478.3037" rx="55.9312" ry="18.6963"/><ellipse class="cls-1" cx="121.4348" cy="443.2313" rx="55.9312" ry="18.6963"/><ellipse class="cls-1" cx="394.1805" cy="422.4418" rx="79.8775" ry="22.5926"/><rect class="cls-2" x="30.2072" y="391.0019" width="555.5305" height="4.0613"/><path class="cls-1" d="M53.1919,398.0019H562.6946s74.8249-206.5693-6.3961-249.8527C483.6921,109.456,510.2782-5.19,408.1293,8.06S299.7286,60.083,196.992,51.99C44.2488,39.9578-49.6243,146.51,39.5586,293.7215,62.0833,330.9048,63.8555,368.617,53.1919,398.0019Z" transform="translate(-4.9085 -7)"/><path class="cls-3" d="M590.5328,315.4434H551.7585l1.996-6.62a3.8625,3.8625,0,0,0-3.6989-4.9775h-15.04a8.7043,8.7043,0,0,0-8.3847,6.2311l-1.62,5.3664H479.1977l-1.4406-1.4907a1.2079,1.2079,0,0,0-.7366-.3595l-7.4287-.8028,4.4384-8.6131h18.8347a1.7794,1.7794,0,0,0,1.81-1.968l-2.37-26.7275a2.21,2.21,0,0,0-2.16-1.97H453.5265a1.7811,1.7811,0,0,0-1.81,1.97l2.37,26.7275a2.21,2.21,0,0,0,2.1595,1.968h8.9666l-1.3965,8.622-2.6515.6717a1.1977,1.1977,0,0,0-.86.8352l-.3211,1.1372H423.4758l-.3212-1.1372a1.1975,1.1975,0,0,0-.8588-.8352l-2.6515-.6717-1.3965-8.62h8.9666a2.21,2.21,0,0,0,2.16-1.97l2.37-26.7275a1.7808,1.7808,0,0,0-1.81-1.97H393.319a2.21,2.21,0,0,0-2.16,1.97l-2.3732,26.7275a1.781,1.781,0,0,0,1.5819,1.96,1.8164,1.8164,0,0,0,.2285.01h18.8348L413.87,312.79l-7.4288.8029a1.2075,1.2075,0,0,0-.7365.3594l-1.4407,1.4908H336.7308l-1.62-5.3664a8.7088,8.7088,0,0,0-8.3862-6.2312h-15.04a3.8621,3.8621,0,0,1-3.6046,0h-15.043a8.7075,8.7075,0,0,0-8.3863,6.2312l-1.62,5.3664H243.3526l-1.4422-1.4908a1.2,1.2,0,0,0-.7365-.3594l-7.4287-.8029,4.4383-8.613h18.8348a1.7795,1.7795,0,0,0,1.81-1.9681l-2.37-26.7274a2.21,2.21,0,0,0-2.16-1.9695H217.6842a1.7811,1.7811,0,0,0-1.81,1.9695l2.37,26.7274a2.21,2.21,0,0,0,2.16,1.9681H229.37l-.4124,2.541-.984,6.0809-2.6516.6717a1.1949,1.1949,0,0,0-.8588.8352l-.3211,1.1373h-41.906a.7262.7262,0,0,0-.7263.7262v2.161a.7263.7263,0,0,0,.7263.7262h2.1831v2.03a.3182.3182,0,0,0,.3181.3182h96.5041l-.1885.6275H189.7223a1.9945,1.9945,0,0,0-1.9916,1.9916v74.3284a1.9945,1.9945,0,0,0,1.9916,1.9916H229.4a1.9945,1.9945,0,0,0,1.9916-1.9916V324.0241a1.1372,1.1372,0,0,1,1.1358-1.1372h48.2682l-8.22,27.27H250.4366a1.283,1.283,0,0,0-1.283,1.283v3.6665h-1.3405a.5759.5759,0,0,0-.576.5745v3.4145a.5759.5759,0,0,0,.576.5745H250.69a3.87,3.87,0,0,0-2.6722,3.6724v33.1442a3.8669,3.8669,0,0,0,3.8624,3.8624h46.0763a.4287.4287,0,1,0,.05-.8559.4187.4187,0,0,0-.05,0H277.7356a3.0109,3.0109,0,0,1-3.008-3.0065V363.3419a3.0111,3.0111,0,0,1,3.008-3.0066h15.6455a3.8387,3.8387,0,0,0,3.6989-2.7472l10.4589-34.7013h4.6888l10.4588,34.7013a3.8373,3.8373,0,0,0,3.6974,2.7472h15.647a3.01,3.01,0,0,1,3.0066,3.0066v33.1442a3.01,3.01,0,0,1-3.0066,3.0065H321.8115a.4287.4287,0,0,0,0,.8559h46.0749a3.8669,3.8669,0,0,0,3.8624-3.8624V363.3419a3.87,3.87,0,0,0-2.6737-3.6724h2.8784a.5759.5759,0,0,0,.576-.5745v-3.4145a.5759.5759,0,0,0-.576-.5745H370.616V351.44a1.2831,1.2831,0,0,0-1.2831-1.283H347.194l-8.22-27.27H522.7684l-8.22,27.27H492.4113a1.2831,1.2831,0,0,0-1.2831,1.283v3.6665h-1.3376a.5759.5759,0,0,0-.5759.5745v3.4145a.5759.5759,0,0,0,.5759.5745h2.877a3.87,3.87,0,0,0-2.6722,3.6724v33.1442a3.8669,3.8669,0,0,0,3.8624,3.8624h46.0734a.4287.4287,0,1,0,.05-.8559.417.417,0,0,0-.05,0H519.7088a3.0109,3.0109,0,0,1-3.0065-3.0065V363.3419a3.011,3.011,0,0,1,3.0065-3.0066h15.6485a3.83,3.83,0,0,0,3.6974-2.7472l2.4424-8.1019V398.351a1.9945,1.9945,0,0,0,1.9916,1.9916H583.166a1.9931,1.9931,0,0,0,1.99-1.9916V324.0241a1.9931,1.9931,0,0,0-1.99-1.9916H549.7728l.1885-.6275h38.188a.3182.3182,0,0,0,.3182-.3182h0v-2.03H590.53a.8441.8441,0,0,0,.8441-.8426V316.286A.8441.8441,0,0,0,590.5328,315.4434Zm-359.9974,8.5807v74.3284a1.1373,1.1373,0,0,1-1.1358,1.1357H189.7223a1.1371,1.1371,0,0,1-1.1357-1.1357V324.0241a1.1372,1.1372,0,0,1,1.1357-1.1372h41.17A1.9886,1.9886,0,0,0,230.5354,324.0241Zm78.7388-18.1085a2.99,2.99,0,0,1,.61-.61,2.99,2.99,0,0,1,1.08,3.26,1.3991,1.3991,0,0,1-2.1581,0A2.9785,2.9785,0,0,1,309.2742,305.9156Zm.61,9.1934.1016.3344h-.2018Zm232.4822,21.29a3.6561,3.6561,0,0,0,2.4718-.9619l-2.4866,8.2492v-7.2873ZM535.0156,304.7h15.04a3.0066,3.0066,0,0,1,2.88,3.8742l-.4228,1.4009a2.329,2.329,0,0,0-2.1507-1.4525H530.3591a3.65,3.65,0,0,0-2.7031,1.1991A7.8515,7.8515,0,0,1,535.0156,304.7Zm-223.3285,0h15.04a7.8515,7.8515,0,0,1,7.3654,5.0217,3.6472,3.6472,0,0,0-2.7031-1.199h-19.533a3.8185,3.8185,0,0,0-.6688-3.12,3.9164,3.9164,0,0,0-.4876-.5347,3.0208,3.0208,0,0,1,.987-.168Zm-18.6506,0h15.04a3.02,3.02,0,0,1,.9928.1679,3.9223,3.9223,0,0,0-.4876.5347,3.8213,3.8213,0,0,0-.6673,3.1274h-19.533a3.6441,3.6441,0,0,0-2.7016,1.1991A7.85,7.85,0,0,1,293.0365,304.7Zm-19.1692,58.64v33.1442a4.0622,4.0622,0,0,0,.0236.4242,1.01,1.01,0,0,0,.0206.134c.0148.0928.0295.1856.0486.2755.0118.0531.0265.1031.04.1547.0221.081.0442.162.0722.2416.0177.053.0368.1031.0559.1546.03.0766.06.1473.0958.2254.0221.05.0457.0987.0707.1473.0368.0737.0781.1473.1208.2166.0265.0442.0516.0884.0795.1311.05.0751.1017.1473.1562.218.0265.0353.0516.0721.0795.106.0752.0928.1562.1827.24.27l.0251.028a3.8945,3.8945,0,0,0,.2946.2666l.0147.0133H251.8831a3.0094,3.0094,0,0,1-3.0065-3.0065V363.3405a3.01,3.01,0,0,1,3.0065-3.0066H267.53a3.8478,3.8478,0,0,0,2.1728-.6658h6.8425a3.87,3.87,0,0,0-2.6722,3.6739Zm22.3908-6a2.9846,2.9846,0,0,1-2.7105,2.1257.5763.5763,0,0,0,.1474-.3727V355.679a.5761.5761,0,0,0-.576-.5745h-1.3376v-3.6664a1.2831,1.2831,0,0,0-1.283-1.2831h-17.03l4.6785-15.5188a2.3245,2.3245,0,0,0,2.2553,1.7676h19.99a3.66,3.66,0,0,0,2.4718-.9619Zm11.5371-35.31.1886-.6275H311.78l.1886.6275Zm63.0948,41.31v33.1442a3.0111,3.0111,0,0,1-3.0066,3.0065H344.4556a3.8565,3.8565,0,0,0,1.4407-3.0065V363.3405a3.87,3.87,0,0,0-2.6722-3.6724h6.8425a3.8478,3.8478,0,0,0,2.1728.6658h15.647a3.011,3.011,0,0,1,3.0065,3.0081Zm-41.6159-13.184a1.2816,1.2816,0,0,0-1.2816,1.2815v3.668H326.655a.5759.5759,0,0,0-.576.5745v3.4145a.576.576,0,0,0,.1473.3727,2.9815,2.9815,0,0,1-2.71-2.1256L316.9,335.4389a3.6576,3.6576,0,0,0,2.4718.9605H339.36a2.3274,2.3274,0,0,0,2.2568-1.7677l4.6785,15.5218Zm9.4424-28.124-.1885-.6275H523.2162l-.19.6275ZM515.8479,363.342v33.1441a4.0625,4.0625,0,0,0,.0235.4243,1.015,1.015,0,0,0,.0207.134c.0132.0928.0279.1856.0486.2769.0118.0516.0265.1017.04.1473.0207.0825.0442.1636.0722.2445a1.3356,1.3356,0,0,0,.056.1474c.0294.078.06.1473.0957.2283.0221.0486.0457.0972.0693.1473.0383.0751.08.1473.1222.218.0265.0442.0516.0884.08.1311.0486.0751.1016.1473.1561.218.0265.0354.0516.0722.08.1061a2.6253,2.6253,0,0,0,.2357.2637c.01.01.0191.0235.0294.0338a3.9166,3.9166,0,0,0,.2947.2667l.0162.0132H493.8578a3.0094,3.0094,0,0,1-3.0065-3.0065V363.336a3.0094,3.0094,0,0,1,3.0065-3.0065h15.647a3.8433,3.8433,0,0,0,2.1713-.6658H518.52A3.8682,3.8682,0,0,0,515.8479,363.342Zm22.3907-6a2.986,2.986,0,0,1-2.7119,2.1257.571.571,0,0,0,.1473-.3727v-3.4146a.576.576,0,0,0-.576-.5745H533.76V351.44a1.283,1.283,0,0,0-1.283-1.283H515.4428l4.677-15.5189a2.3275,2.3275,0,0,0,2.2568,1.7677h19.119V346.53Zm44.9288-34.4552a1.1371,1.1371,0,0,1,1.1357,1.1372v74.3284a1.1371,1.1371,0,0,1-1.1357,1.1358h-39.68a1.1373,1.1373,0,0,1-1.1358-1.1358V346.6476l7.1636-23.7636Z" transform="translate(-4.9085 -7)"/><rect class="cls-4" x="432.4981" y="269.4069" width="27.246" height="32.664" rx="1.6204"/><path class="cls-5" d="M365.1818,418.8813l-3.4117,11.325,14.2255.53s-4.45-2.9918,0-15.6308S365.1818,418.8813,365.1818,418.8813Z" transform="translate(-4.9085 -7)"/><polygon class="cls-5" points="395.072 393.008 399.503 402.361 405.432 397.685 400.251 383.423 395.072 393.008"/><path class="cls-6" d="M386.0626,333.2205s-14.772,42.7928-14.772,47.1693-9.52,40.1163-9.52,40.1163,7.7042,2.13,13.3726,1.43l21.7544-53.4609,47.6009-44.3S445.8105,308.1782,386.0626,333.2205Z" transform="translate(-4.9085 -7)"/><rect class="cls-4" x="402.2471" y="341.6967" width="56.6383" height="9.7356" rx="0.299"/><path class="cls-7" d="M463.7938,357.731H407.1556" transform="translate(-4.9085 -7)"/><rect class="cls-8" x="428.3632" y="351.4321" width="4.406" height="63.9815"/><rect class="cls-9" x="424.8396" y="384.5646" width="11.4532" height="19.4269"/><path class="cls-8" d="M396.9147,424.314a76.0461,76.0461,0,0,1,77.1214,0v-3.22a78.5759,78.5759,0,0,0-77.1214,0Z" transform="translate(-4.9085 -7)"/><path class="cls-9" d="M469.1043,424.314a4.9586,4.9586,0,1,1,4.9318,4.4369A4.7057,4.7057,0,0,1,469.1043,424.314Z" transform="translate(-4.9085 -7)"/><path class="cls-9" d="M391.9829,424.314a4.9586,4.9586,0,1,1,4.9318,4.4369A4.7057,4.7057,0,0,1,391.9829,424.314Z" transform="translate(-4.9085 -7)"/><path class="cls-9" d="M430.8176,424.314a4.6831,4.6831,0,1,1,4.6579,4.1909A4.4436,4.4436,0,0,1,430.8176,424.314Z" transform="translate(-4.9085 -7)"/><path class="cls-10" d="M401.2751,404.1859h0l-.0369.0589c-.5111.8264-6.9514,11.0805-11.3706,11.5165-4.6049.4552-3.2408,9.217-3.2408,9.217l33.0278-12.1838s3.5884-.2445-3.8712-8.2816c-1.1991-1.2919-2.6736-2.7782-4.5062-4.5047h0S405.4969,404.8105,401.2751,404.1859Z" transform="translate(-4.9085 -7)"/><path class="cls-11" d="M391.1123,336.9356s-21.666,4.8214-14.526,21.0517,22.8062,45.7419,22.8062,45.7419l9.0417-4.2277s-4.596-39.3016-11.49-44.6931l41.115-3.718c13.9161-1.258,23.04-11.409,19.2413-21.4023l-3.2791-8.6234Z" transform="translate(-4.9085 -7)"/><path class="cls-12" d="M427.3661,337.61s23.1568.1856,30.7873-6.0515l-1.62-3.8579-30.1347,4.9554Z" transform="translate(-4.9085 -7)"/><path class="cls-13" d="M412.7827,263.326s-9.2465.3874-12.31,1.7559c-3.2187,1.4363-18.93,33.813-18.93,33.813l37.148,11.1085-8.778,20.5685s13.2105,10.5075,39.4784,1.48c0,0,8.5365-2.1344,9.6855-3.939s-4.272-13.2046-3.2835-20.39-6.49-41.3935-11.2882-44.3956-17.2718-3.005-17.2718-3.005S412.9448,261.57,412.7827,263.326Z" transform="translate(-4.9085 -7)"/><path class="cls-14" d="M427.9819,283.3805s-5.9276,17.6445-15.46,21.0929l11.543,1.8075,6.61-19.041Z" transform="translate(-4.9085 -7)"/><path class="cls-15" d="M445.2051,282.6439s1.5128,30.3616-12.8924,34.7985-3.4469-14.7735-3.4469-14.7735Z" transform="translate(-4.9085 -7)"/><g class="cls-16"><rect class="cls-4" x="92.6244" y="358.1671" width="61.9575" height="11.9997" rx="0.299"/><path class="cls-4" d="M82.6814,327.15c0-10.2113.2592-20.293-.1253-30.4573a111.2071,111.2071,0,0,1,.7646-20.1811c.4257-2.9343,2.3569-16.3378,8.1019-13.81,1.1077.4876,1.6027,2.0786,1.7912,2.8269q-.383,30.8092-.763,61.6157c0,2.68-1.7677,4.8523-3.9493,4.8523H86.6307C84.4564,332.0023,82.6814,329.83,82.6814,327.15Z" transform="translate(-4.9085 -7)"/><path class="cls-17" d="M101.7415,379.08h47.567a2.4424,2.4424,0,0,0,0-4.8833h-47.567A16.6659,16.6659,0,0,1,89.79,369.1753a17.1409,17.1409,0,0,1-4.951-12.119v-64.475a2.4085,2.4085,0,0,0-4.8155-.1191q-.0015.06,0,.1191v64.475A22.04,22.04,0,0,0,86.3847,372.63,21.4259,21.4259,0,0,0,101.7415,379.08Z" transform="translate(-4.9085 -7)"/><rect class="cls-18" x="117.2954" y="370.1682" width="4.8184" height="70.0241"/><path class="cls-18" d="M122.204,447.8832h4.8169a.6851.6851,0,0,0,.6806-.6894h0V377.1667a.6851.6851,0,0,0-.6806-.6894H122.204a.685.685,0,0,0-.6791.6894v70.0241a.6834.6834,0,0,0,.6746.6923Zm4.1393-1.3788h-3.4588V377.8591h3.4588Z" transform="translate(-4.9085 -7)"/><rect class="cls-17" x="113.4404" y="402.1649" width="12.53" height="23.9463"/><path class="cls-17" d="M118.3489,433.8006h12.53a.6849.6849,0,0,0,.6805-.6894h0V409.1649a.6849.6849,0,0,0-.6805-.6894h-12.53a.685.685,0,0,0-.6806.6894h0v23.9463a.6851.6851,0,0,0,.6806.6894ZM130.2,432.4218H119.03v-22.566H130.2Z" transform="translate(-4.9085 -7)"/><path class="cls-18" d="M166.7939,449.54a75.21,75.21,0,0,0-84.3659,0v-3.967a77.596,77.596,0,0,1,84.3659,0Z" transform="translate(-4.9085 -7)"/><path class="cls-18" d="M166.7939,450.2313a.6469.6469,0,0,0,.32-.0825.6836.6836,0,0,0,.3594-.607v-3.9773a.6938.6938,0,0,0-.3152-.5892,79.6565,79.6565,0,0,0-42.563-12.5727h-.8839a78.5487,78.5487,0,0,0-41.6438,12.5668.6982.6982,0,0,0-.3153.5892v3.9773a.6866.6866,0,0,0,.3595.607.6734.6734,0,0,0,.6982-.0324,74.5667,74.5667,0,0,1,83.61,0A.6752.6752,0,0,0,166.7939,450.2313Zm-.68-4.272v2.3142a75.8582,75.8582,0,0,0-83.0049,0v-2.32a77.1807,77.1807,0,0,1,40.6157-12.1528h.8706a78.2647,78.2647,0,0,1,41.5215,12.1528Z" transform="translate(-4.9085 -7)"/><path class="cls-17" d="M87.8253,449.54a5.3949,5.3949,0,1,0-5.3944,5.471A5.4314,5.4314,0,0,0,87.8253,449.54Z" transform="translate(-4.9085 -7)"/><path class="cls-17" d="M82.4324,455.7023a6.161,6.161,0,1,0-6.0764-6.16A6.1238,6.1238,0,0,0,82.4324,455.7023Zm0-10.942a4.7816,4.7816,0,1,1-4.6966,4.6965A4.7548,4.7548,0,0,1,82.4324,444.76Z" transform="translate(-4.9085 -7)"/><path class="cls-17" d="M172.1913,449.54a5.3949,5.3949,0,1,0-5.3944,5.471A5.4324,5.4324,0,0,0,172.1913,449.54Z" transform="translate(-4.9085 -7)"/><path class="cls-17" d="M166.7939,455.7023a6.161,6.161,0,1,0-6.0749-6.16A6.1238,6.1238,0,0,0,166.7939,455.7023Zm0-10.942a4.7813,4.7813,0,1,1-4.7138,4.7816A4.7548,4.7548,0,0,1,166.7939,444.76Z" transform="translate(-4.9085 -7)"/><path class="cls-17" d="M129.7078,449.54a5.0944,5.0944,0,1,0-5.0939,5.1675A5.13,5.13,0,0,0,129.7078,449.54Z" transform="translate(-4.9085 -7)"/><path class="cls-17" d="M124.6139,455.3959A5.8568,5.8568,0,1,0,118.84,449.54,5.8214,5.8214,0,0,0,124.6139,455.3959Zm0-10.3336a4.4767,4.4767,0,1,1-4.4189,4.5337l0-.0556a4.4532,4.4532,0,0,1,4.4192-4.4767Z" transform="translate(-4.9085 -7)"/><path class="cls-19" d="M118.3489,365.086s7.0354,7.04,41.1415,4.3441v-4.263Z" transform="translate(-4.9085 -7)"/></g><rect class="cls-20" x="147.0133" y="31.8618" width="313.0461" height="207.7964" rx="5.4371"/><circle class="cls-21" cx="254.4593" cy="92.3772" r="33.4859"/><rect class="cls-22" x="306.0169" y="58.8913" width="139.2513" height="143.5703"/><rect class="cls-23" x="298.5072" y="52.0872" width="139.2513" height="142.8647"/><path class="cls-22" d="M324.2155,186.598h112.74s-6.6554-17.4309-11.9319-15.2331-10.3263-4.3942-14.6851-16.6988-8.1343-1.4642-10.0582,4.6874-7.3816,16.4056-12.2,3.223-8.5659-28.9886-14.5319-11.132-10.556-2.6368-10.556-2.6368-3.2113-30.54-19.1588.8839c-10.0965,19.8865-11.3589-32.9571-11.3589-32.9571s.6879-30.54-8.26-23.2894Z" transform="translate(-4.9085 -7)"/><rect class="cls-24" x="331.1182" y="115.5148" width="7.1709" height="63.3658"/><rect class="cls-25" x="353.9862" y="141.4586" width="7.1709" height="37.422"/><rect class="cls-24" x="375.6772" y="115.5148" width="7.1709" height="63.3658"/><rect class="cls-26" x="398.5437" y="141.4586" width="7.1709" height="37.422"/><polygon class="cls-13" points="429.798 186.463 310.507 186.463 310.507 107.719 312.008 107.719 312.008 184.96 429.798 184.96 429.798 186.463"/><rect class="cls-23" x="185.5548" y="80.4718" width="20.7335" height="2.1934"/><rect class="cls-23" x="185.5548" y="85.3286" width="20.7335" height="2.1934"/><rect class="cls-23" x="194.9751" y="90.1853" width="11.3132" height="2.1934"/><rect class="cls-27" x="341.9939" y="207.2358" width="38.325" height="2.1934"/><rect class="cls-27" x="341.9939" y="212.0926" width="38.325" height="2.1934"/><rect class="cls-27" x="341.9939" y="216.9493" width="20.9132" height="2.1934"/><rect class="cls-27" x="226.3295" y="137.0394" width="52.3501" height="2.1934"/><rect class="cls-27" x="226.3295" y="141.8961" width="52.3501" height="2.1934"/><rect class="cls-27" x="250.1138" y="146.7514" width="28.5659" height="2.1934"/><rect class="cls-27" x="226.3295" y="151.2884" width="52.3501" height="2.1934"/><rect class="cls-27" x="226.3295" y="156.1452" width="52.3501" height="2.1934"/><rect class="cls-27" x="250.1138" y="161.0019" width="28.5659" height="2.1934"/><rect class="cls-27" x="226.3295" y="165.539" width="52.3501" height="2.1934"/><rect class="cls-27" x="226.3295" y="170.3957" width="52.3501" height="2.1934"/><rect class="cls-27" x="250.1138" y="175.2524" width="28.5659" height="2.1934"/><rect class="cls-27" x="226.3295" y="179.7895" width="52.3501" height="2.1934"/><rect class="cls-27" x="226.3295" y="184.6462" width="52.3501" height="2.1934"/><rect class="cls-27" x="250.1138" y="189.5029" width="28.5659" height="2.1934"/><rect class="cls-13" x="263.5482" y="112.5908" width="0.819" height="0.5583"/><path class="cls-13" d="M270.99,119.5908h1.7176v.5583h-1.7146Zm3.4294,0h1.7146v.5583H274.42Zm3.4293,0h1.7131v.5583H277.849Zm3.4278,0h1.7147v.5583h-1.7147Zm3.4293,0h1.7147v.5583h-1.7147Zm3.4294,0H289.85v.5583h-1.7146Z" transform="translate(-4.9085 -7)"/><polygon class="cls-13" points="286.656 112.591 287.783 112.591 287.783 113.615 287.169 113.615 287.169 113.149 286.656 113.149 286.656 112.591"/><path class="cls-13" d="M292.0775,122.1141h.6142v1.5011h-.6142Zm0,3.0022h.6142v1.501h-.6142Zm0,3.0006h.6142v1.5011h-.6142Zm0,3.0021h.6142V132.62h-.6142Zm0,3.0007h.6142v1.501h-.6142Zm0,3.0021h.6142v1.5011h-.6142Zm0,3.0007h.6142v1.5084h-.6142Zm0,3.0021h.6142v1.5011h-.6142Z" transform="translate(-4.9085 -7)"/><rect class="cls-13" x="287.169" y="139.1253" width="0.6143" height="0.7439"/><ellipse class="cls-13" cx="287.4754" cy="140.1859" rx="2.6898" ry="2.2892"/><ellipse class="cls-13" cx="263.5482" cy="113.1859" rx="2.6898" ry="2.2892"/><polygon class="cls-13" points="307.599 111.785 315.106 111.785 311.352 104.399 307.599 111.785"/><polygon class="cls-13" points="428.135 181.831 428.135 189.338 435.521 185.585 428.135 181.831"/><polygon class="cls-13" points="420.522 95.664 426.385 100.352 428.067 92.24 420.522 95.664"/><path class="cls-26" d="M250.6635,99.8884v.1252l-19.4314-5.5093a27.25,27.25,0,0,1,26.9013-22.9255V91.28A8.7014,8.7014,0,0,0,250.6635,99.8884Z" transform="translate(-4.9085 -7)"/><path class="cls-28" d="M230.0831,96.163l20.8706,5.9173a8.7059,8.7059,0,0,0,3.8712,5.228l-10.6061,17.2482a27.2446,27.2446,0,0,1-14.1327-28.3876Z" transform="translate(-4.9085 -7)"/><path class="cls-27" d="M260.894,91.3254V70.5285A27.2524,27.2524,0,0,1,288.1459,97.78c0,.6688-.0339,1.3258-.0811,1.9872l-20.0338.9752c.028-.28.0427-.5613.0427-.8471A8.7013,8.7013,0,0,0,260.894,91.3254Z" transform="translate(-4.9085 -7)"/><path class="cls-13" d="M267.2473,103.5666,288.14,102.55a27.2408,27.2408,0,0,1-39.9336,22.0814l9.9256-16.1375a8.6041,8.6041,0,0,0,9.1153-4.9275Z" transform="translate(-4.9085 -7)"/><polygon class="cls-13" points="361.804 116.612 333.241 95.206 320.998 101.848 320.494 100.92 333.334 93.953 361.636 115.167 376.627 97.207 405.613 115.217 425.234 95.157 425.989 95.895 405.775 116.562 376.85 98.591 361.804 116.612"/><circle class="cls-24" cx="333.2026" cy="94.9625" r="2.5631"/><circle class="cls-24" cx="376.6538" cy="98.2828" r="2.5631"/><circle class="cls-24" cx="405.4716" cy="115.8904" r="2.5631"/><rect class="cls-29" x="194.0942" y="100.5056" width="13.0765" height="4.0863"/><rect class="cls-30" x="194.0942" y="106.9047" width="13.0765" height="4.0863"/><rect class="cls-13" x="194.0942" y="113.3052" width="13.0765" height="4.0863"/><rect class="cls-28" x="194.0942" y="119.7057" width="13.0765" height="4.0863"/><rect class="cls-27" x="194.0942" y="126.1047" width="13.0765" height="4.0863"/><rect class="cls-31" x="194.0942" y="132.5052" width="13.0765" height="4.0863"/><rect class="cls-26" x="194.0942" y="138.9058" width="13.0765" height="4.0863"/><rect class="cls-32" x="134.0104" y="17.9442" width="340.3334" height="235.6345" rx="5.4371"/><polygon class="cls-33" points="392.638 297.684 360.986 308.19 326.49 303.266 326.821 301.784 363.094 293.253 392.638 297.684"/><path class="cls-15" d="M274.623,363.6233l9.56,122.6114s1.6631,3.1406,4.7138.7365L300.5344,359.048Z" transform="translate(-4.9085 -7)"/><path class="cls-15" d="M174.392,340.0659l9.5588,122.6114s1.6631,3.1406,4.7139.7365L200.302,335.4905Z" transform="translate(-4.9085 -7)"/><path class="cls-15" d="M324.6472,296.0092l9.5588,122.6114s1.6631,3.1406,4.7138.7365l11.6373-127.9218Z" transform="translate(-4.9085 -7)"/><path class="cls-15" d="M403.6172,318.4588l9.56,122.6128s1.6616,3.1407,4.7138.7366l11.6373-127.9218Z" transform="translate(-4.9085 -7)"/><polygon class="cls-34" points="158.735 328.493 284.532 365.07 432.497 303.002 338.288 282.072 158.735 328.493"/><path class="cls-5" d="M395.1205,311.7873s-5.8923,1.3095-5.8923,4.67,4.8421,3.94,4.8421,3.94l8.2079-3.2835s.984-3.201,0-4.5135S395.1205,311.7873,395.1205,311.7873Z" transform="translate(-4.9085 -7)"/><path class="cls-35" d="M397.94,312.1172s3.3424,2.9815.9059,6.37l5.0733-2.0711S400.3323,310.3215,397.94,312.1172Z" transform="translate(-4.9085 -7)"/><polygon class="cls-36" points="326.49 304.861 362.079 313.396 392.638 299.773 326.49 304.861"/><polygon class="cls-33" points="392.638 297.684 360.986 308.19 326.49 303.266 326.821 301.784 363.094 293.253 392.638 297.684"/><polygon class="cls-13" points="381.534 282.072 353.138 288.289 356.862 300.829 387.281 292.932 381.534 282.072"/><path class="cls-15" d="M365.5368,302.9326s25.0113-2.24,30.4352-8.6749l-3.7829,5.68-27.7085,6.835Z" transform="translate(-4.9085 -7)"/><path class="cls-15" d="M400.4369,214.5864s-.4022-14.0119,11.4163-10.4014Z" transform="translate(-4.9085 -7)"/><polygon class="cls-36" points="275.084 321.219 321.576 318.531 295.437 350.594 250.541 344.285 275.084 321.219"/><polygon class="cls-37" points="158.735 328.493 158.735 337.084 284.809 375.599 284.809 365.07 158.735 328.493"/><polygon class="cls-38" points="284.809 365.07 432.497 303.002 432.497 311.522 284.809 375.599 284.809 365.07"/><path class="cls-5" d="M212.2383,220.8735s10.587-4.9245,19.2045,16.2495a6.5416,6.5416,0,0,0,2.516,2.1065c1.2035.3285-1.97,2.955-1.97,2.955s1.97,6.128-1.3125,9.192-12.5845,3.5015-11.7095,8.3155,2.08,11.2749,2.08,11.2749-11.599,3.6105-12.256-2.4085a87.5228,87.5228,0,0,1-.5465-10.5045S187.3433,227.685,212.2383,220.8735Z" transform="translate(-4.9085 -7)"/><path class="cls-35" d="M219.2619,223.9021s-3.12,7.6129-.576,12.2089-2.8739,10.746-2.8739,10.746a1.9756,1.9756,0,0,0,1.3257,2.22c1.64.5745-8.8885,8.9739-8.8885,8.9739l3.9582-19.1131S215.98,218.7523,219.2619,223.9021Z" transform="translate(-4.9085 -7)"/><path class="cls-39" d="M220.6142,222.0417s-5.798,6.3533-2.6309,13.5714-9.7385,22.432-9.7385,22.432-23.4411-9.3393-9.958-29.765C209.3378,211.5445,220.6142,222.0417,220.6142,222.0417Z" transform="translate(-4.9085 -7)"/><path class="cls-17" d="M200.3138,252.9791s-5.9675.6953-3.7785,6.0573,10.5045,4.0481,12.6935,0S200.3138,252.9791,200.3138,252.9791Z" transform="translate(-4.9085 -7)"/><path class="cls-5" d="M193.65,394.1955s.9162,12.6522-.9443,17.22-10.2865,10.3027-4.596,53.1059a40.8688,40.8688,0,0,0-4.2719,3.6105c-2.6,2.5837,12.8069,20.7026,12.8069,20.7026l6.2385-1.314s-10.8345-13.542-7.442-27.5627,4.9245-32.2883,7.9885-37.3852,6.785-16.7268,9.301-26.7481S193.65,394.1955,193.65,394.1955Z" transform="translate(-4.9085 -7)"/><path class="cls-35" d="M193.7792,396.576v4.9053s8.4112,5.0453,16.5765,3.0139l1.8472-6.8719Z" transform="translate(-4.9085 -7)"/><path class="cls-5" d="M223.83,395.8836s3.9125,12.1028,3.1936,16.964-7.5436,12.3355,8.2154,52.6918c0,0,.355,3.74-3.2894,4.4738S247.2,490.9176,247.2,490.9176l5.362-1.3258s-11.2337-15.7412-11.2823-30.1435-2.9226-32.5166-1.1607-38.1644,3.0934-18.7994,3.142-29.1153S223.83,395.8836,223.83,395.8836Z" transform="translate(-4.9085 -7)"/><path class="cls-35" d="M224.453,397.806l1.3258,4.7138s9.9477.9251,17.3617-5.3178l.3845-8.831Z" transform="translate(-4.9085 -7)"/><path class="cls-33" d="M186.5744,468.1792a20.4945,20.4945,0,0,0,.819,2.66,47.4912,47.4912,0,0,0,3.9847,6.8071c1.4981,2.3731,2.8784,4.8317,4.4,7.1871a4.42,4.42,0,0,0,3.0934,2.3466,6.36,6.36,0,0,0,1.9916-.04c.4037-.0722.8146-.3491,1.2079-.3815a1.7807,1.7807,0,0,1,.9472.3477c1.0827.6113,2.0756,1.3817,3.1524,2.0063.9413.5436,1.9533.8838,2.9226,1.3582.2946.1473.7277.3373.8338.7055.1473.5422-.3934,1.1063-.7984,1.3376-1.2256.7012-3.0685.411-4.4031.4272a61.4633,61.4633,0,0,1-8.6057-.0707,3.5449,3.5449,0,0,1-2.4954-1.1151c-1.15-1.454-1.5408-3.637-2.1993-5.3384a11.8748,11.8748,0,0,0-2.2877-4.0319,7.6476,7.6476,0,0,0-2.78-1.7868c-.3608-.1355-.53-.246-.7.14a7.05,7.05,0,0,0-.0471,2.3893c-.0191,1.3817-.053,8.3287-.0545,8.8237a2.778,2.778,0,0,1,0,.8839c-.1252.2283.04.0913-.3226.1605a3.3693,3.3693,0,0,1-1.2153,0c-.2357-.1709-.1149-1.5762-.1281-1.9666-.0457-1.3758-.1267-2.75-.2357-4.1246a46.11,46.11,0,0,0-1.0312-7.9207,19.6744,19.6744,0,0,1-1.068-6.1162,8.2627,8.2627,0,0,1,.7881-3.4676c.7985-1.5055,2.3791-2.6516,3.5973-3.7549Z" transform="translate(-4.9085 -7)"/><path class="cls-33" d="M235.32,469.1352a20.5819,20.5819,0,0,0,.819,2.66,47.4858,47.4858,0,0,0,3.9847,6.8071c1.4981,2.3731,2.8784,4.8317,4.4,7.1871a4.4268,4.4268,0,0,0,3.0935,2.3466,6.3636,6.3636,0,0,0,1.9916-.04c.4036-.0722.8146-.3492,1.2079-.3816a1.7821,1.7821,0,0,1,.9472.3477c1.0827.6113,2.077,1.3817,3.1538,2.0063.94.5436,1.9518.8838,2.9211,1.3582.2946.1473.7277.3373.8338.7056.1546.5421-.3933,1.1062-.7984,1.3376-1.2256.7011-3.0685.411-4.403.4271a61.4326,61.4326,0,0,1-8.6057-.0707,3.5439,3.5439,0,0,1-2.4954-1.1151c-1.15-1.4539-1.5408-3.637-2.1993-5.3384a11.86,11.86,0,0,0-2.2877-4.0318,7.6167,7.6167,0,0,0-2.78-1.7868c-.3609-.1355-.53-.246-.7.1473a7.0492,7.0492,0,0,0-.0472,2.3893c-.0191,1.3817-.053,8.3288-.0545,8.8237a2.778,2.778,0,0,1,0,.8839c-.1252.2283.04.0913-.3226.1605a3.3694,3.3694,0,0,1-1.2153,0c-.2357-.1709-.1149-1.5762-.1281-1.9666-.0457-1.3758-.1267-2.75-.2357-4.1246a46.11,46.11,0,0,0-1.0312-7.9207,19.6714,19.6714,0,0,1-1.0679-6.1162,8.2611,8.2611,0,0,1,.788-3.4676c.7985-1.507,2.3791-2.6516,3.5973-3.7564Z" transform="translate(-4.9085 -7)"/><path class="cls-5" d="M405.4321,206.6745s-7.386,7.2181-6.237,17.0715a9.6455,9.6455,0,0,1-4.6785,5.4975s-2.4615,1.971,3.036,3.12c0,0,2.242-.5745,2.1463,3.282s1.5467,8.208,8.1137,8.7,6.072,17.235,6.072,17.235,9.6855,1.473,12.885-1.97c0,0-6.237-9.4394-2.298-15.183s15.8679-16.5794,9.74-27.4124S405.4321,206.6745,405.4321,206.6745Z" transform="translate(-4.9085 -7)"/><path class="cls-35" d="M423.5361,252.0644s-.9088,8.6219-6.9808,9.0682l3.1759,3.0508,6.5375-5.4S423.9044,255.1343,423.5361,252.0644Z" transform="translate(-4.9085 -7)"/><path class="cls-35" d="M405.3157,208.289s-1.971,12.639,13.3755,14.69c0,0,2.35,1.6808,1.0518,7.8176s4.8611-16.2038,4.8611-16.2038Z" transform="translate(-4.9085 -7)"/><path class="cls-10" d="M362.7542,426.4057h0l-.0634.0413c-.8927.5789-12.06,7.7454-16.3644,6.8955-4.4855-.8839-7.6777,7.1532-7.6777,7.1532l36.7091-1.4421s3.4381.7866.6378-8.317c-.4493-1.4627-1.0547-3.1715-1.8678-5.1911h0S366.3367,428.1278,362.7542,426.4057Z" transform="translate(-4.9085 -7)"/><path class="cls-5" d="M258.6549,281.8234s2.9535,2.6265,4.596-8.043,8.535-24.7845,8.535-24.7845,1.887-11.7359,3.6105-15.1019,5.5814-8.37,5.499-10.7535,3.0375-.411,1.806,2.298S278.68,235.04,278.68,235.04s5.1705,2.955,4.842,5.3355a11.9841,11.9841,0,0,1-7.551,9.6015s2.21,14.1165-1.5585,27.165-6.4816,19.6154-17.646,15.7619Z" transform="translate(-4.9085 -7)"/><path class="cls-35" d="M260.9426,288.0663s6.1736,3.176,9.3555.4817c0,0-2.78,8.0887-13.1369,4.487Z" transform="translate(-4.9085 -7)"/><path class="cls-35" d="M210.5605,261.4773s-.2947,8.5247,9.8858,6.2488l.601,3.2408s-11.8391.1664-12.1028-1.6543l-.67-8.1637Z" transform="translate(-4.9085 -7)"/><polygon class="cls-40" points="329.311 303.638 363.476 308.719 356.944 265.671 322.779 260.591 329.311 303.638"/><polygon class="cls-33" points="326.463 303.215 360.628 308.296 354.097 265.248 319.932 260.166 326.463 303.215"/><path class="cls-41" d="M341.2222,291.4426c-.1606-2.3569.8308-4.4457,2.21-4.6829s2.6339,1.4731,2.7989,3.83-.8323,4.4457-2.21,4.6829S341.3813,293.8,341.2222,291.4426Z" transform="translate(-4.9085 -7)"/><polygon class="cls-42" points="326.463 303.215 360.628 308.296 360.628 310.114 326.49 304.861 326.463 303.215"/><polygon class="cls-43" points="392.638 297.684 392.638 299.773 360.628 310.114 360.628 308.296 392.638 297.684"/><path class="cls-15" d="M413.7093,258.7831l3.7489,3.0934-2.1344,6.2606a2.1006,2.1006,0,0,1-1.1785,1.2948,2.243,2.243,0,0,1-2.4291-.5774C408.7082,266.2162,409.5243,261.2652,413.7093,258.7831Z" transform="translate(-4.9085 -7)"/><path class="cls-15" d="M425.7605,257.8565l-8.2964,4.0245s-.243,10.5074,5.6655,6.8144a18.1239,18.1239,0,0,0,7.551-8.8635S426.58,255.5482,425.7605,257.8565Z" transform="translate(-4.9085 -7)"/><path class="cls-44" d="M428.7067,278.8684s-3.1185,21.1755-5.58,22.8165-30.1981,10.833-30.1981,10.833,8.7619-2.8062,9.357,4.596c0,0,27.09-3.1185,33.6509-10.1775a38.7307,38.7307,0,0,0,8.57-15.9225s3.7931-21.5069-6.8219-22.3215C437.6777,268.6925,430.9943,266.0056,428.7067,278.8684Z" transform="translate(-4.9085 -7)"/><polygon class="cls-45" points="319.755 287.043 322.291 288.443 314.403 324.653 311.445 323.538 319.755 287.043"/><polygon class="cls-46" points="283.131 286.023 319.755 287.043 311.445 323.538 275.103 318.478 283.131 286.023"/><polygon class="cls-47" points="251.257 338.035 293.838 344.232 311.445 323.538 275.103 318.478 251.257 338.035"/><polygon class="cls-48" points="293.838 344.232 293.838 348.387 314.403 324.653 311.445 323.538 293.838 344.232"/><polygon class="cls-49" points="251.257 338.035 293.838 344.232 293.838 348.387 251.257 341.697 251.257 338.035"/><polygon class="cls-29" points="283.131 286.023 309.062 286.745 287.078 320.146 275.103 318.478 283.131 286.023"/><path class="cls-13" d="M405.4321,206.6745s-.91,5.0615,2.3716,8.3435,13.5671,4.487,12.583,12.4755a14.78,14.78,0,0,1-2.2965,6.7894s5.6993-4.4914,6.7894-6.4609,5.0291,3.0743.8706,6.4609-1.2786,10.1451-1.2786,10.1451,19.8865-14.09,13.5346-26.6745c0,0,.3741-16.8519-20.5494-15.32C417.4568,202.4335,407.4369,201.943,405.4321,206.6745Z" transform="translate(-4.9085 -7)"/><path class="cls-13" d="M147.286,212.502H173.89l14.5128,9.4277V181.8915c0-8.0459-7.48-14.5687-16.7062-14.5687h-24.41c-9.2274,0-16.7062,6.5228-16.7062,14.5687v16.0418C130.58,205.9807,138.0587,212.502,147.286,212.502Z" transform="translate(-4.9085 -7)"/><path class="cls-50" d="M172.6067,203.3248a.6634.6634,0,0,0-.0177-.165c-.8-1.5806.5082-2.3466,1.2845-3.3145a.515.515,0,0,1,.4935-.1325c.2475.025.4935.0692.7365.09.9708.0766.9752.0766,1.3759-.797a12.158,12.158,0,0,0,.7365-2.1138c.0884-.3448.0545-.6246-.2843-.7543-1.19-.4566-1.3479-1.3847-1.3876-2.5263a1.5229,1.5229,0,0,1,.7512-1.5644c.18-.112.3285-.2725.5024-.3963a.4787.4787,0,0,0,.1782-.6054,11.8987,11.8987,0,0,0-1.261-2.7.454.454,0,0,0-.5892-.2357c-1.2153.5126-2.0623.0309-2.8975-.8662a1.4822,1.4822,0,0,1-.5348-1.4038c.1915-1.2271.1473-1.2389-1.0164-1.7456a12.4035,12.4035,0,0,0-1.8723-.6143c-.324-.084-.5715-.0383-.7144.2695a2.22,2.22,0,0,1-2.3083,1.3921,1.9777,1.9777,0,0,1-1.915-.8367c-.51-.7645-.5672-.7263-1.4348-.3963a15.1057,15.1057,0,0,0-1.968.9487c-.3889.2165-.5627.4876-.4022.903a2.1222,2.1222,0,0,1-.6128,2.4276,1.96,1.96,0,0,1-2.1963.7483c-.53-.1473-.7778.0811-.9841.5318a12.8649,12.8649,0,0,0-.8632,2.46c-.0707.2946-.05.5524.249.6673,1.2285.4728,1.4288,1.4156,1.423,2.6132a1.4363,1.4363,0,0,1-.7056,1.4731c-.1827.106-.3271.2725-.5024.3948a.4994.4994,0,0,0-.2121.6408,12.2837,12.2837,0,0,0,1.2242,2.6589.5144.5144,0,0,0,.6717.2681,2.3848,2.3848,0,0,1,2.7369.7483,1.9069,1.9069,0,0,1,.5628,2.0623.76.76,0,0,0,.5185.95,12.6439,12.6439,0,0,0,2.4585.8706c.3226.0751.5893.0486.713-.2666.4832-1.1785,1.3847-1.3552,2.5661-1.423.9074-.0516,1.2271.4007,1.6528.9236.5347.66.5318.6541,1.3169.3727a11.2716,11.2716,0,0,0,2.2022-1.0724C172.4933,203.6886,172.7054,203.5649,172.6067,203.3248ZM166.32,188.8886a5.4953,5.4953,0,1,1-5.499,5.5034,5.3843,5.3843,0,0,1,5.499-5.5034Z" transform="translate(-4.9085 -7)"/><path class="cls-50" d="M154.66,190.16a.5056.5056,0,0,0-.0132-.1238c-.6-1.1873.3815-1.7677.9648-2.4895a.3833.3833,0,0,1,.3713-.0987c.1856.0177.37.0516.5553.0678.7292.0574.7365.0574,1.0312-.6a9.235,9.235,0,0,0,.5494-1.5879c.0648-.2578.04-.4685-.2151-.5657-.8941-.3432-1.012-1.04-1.0414-1.8973a1.1519,1.1519,0,0,1,.5642-1.1785c.1355-.0839.2475-.2047.3771-.2946a.3608.3608,0,0,0,.134-.4552,8.8815,8.8815,0,0,0-.9472-2.0269.3416.3416,0,0,0-.4419-.1783,1.7738,1.7738,0,0,1-2.1757-.65,1.1226,1.1226,0,0,1-.4007-1.0547c.1473-.9222.1105-.931-.7645-1.3111a9.362,9.362,0,0,0-1.4068-.4625c-.2431-.0619-.4287-.028-.5362.2033a1.6728,1.6728,0,0,1-1.7323,1.0459,1.4716,1.4716,0,0,1-1.4333-.629c-.3845-.5731-.4272-.5451-1.0783-.2947a11.3825,11.3825,0,0,0-1.4731.713c-.2946.1635-.4242.3653-.2946.6776a1.5969,1.5969,0,0,1-.4611,1.8237,1.4621,1.4621,0,0,1-1.65.5627c-.3977-.109-.5892.06-.7366.3992a9.6555,9.6555,0,0,0-.65,1.8472c-.0515.2269-.0368.4154.1886.5009.9206.355,1.0724,1.0635,1.068,1.9621a1.0844,1.0844,0,0,1-.53,1.1092c-.1371.08-.2461.2063-.3772.2947a.374.374,0,0,0-.159.4817,9.247,9.247,0,0,0,.9191,1.996.386.386,0,0,0,.5053.2018,1.8018,1.8018,0,0,1,2.0623.5612,1.4374,1.4374,0,0,1,.4228,1.5512.57.57,0,0,0,.3889.713,9.5339,9.5339,0,0,0,1.8472.654c.2416.0559.442.0368.5348-.2.3623-.8838,1.04-1.0178,1.9267-1.0679a1.3078,1.3078,0,0,1,1.2418.6923c.4007.495.3992.49.99.28a8.4924,8.4924,0,0,0,1.6351-.7954C154.5763,190.4339,154.7353,190.3411,154.66,190.16ZM149.939,179.318a4.0417,4.0417,0,0,1,4.1246,4.1364,4.1246,4.1246,0,0,1-8.2492,0A4.0435,4.0435,0,0,1,149.939,179.318Z" transform="translate(-4.9085 -7)"/><path class="cls-11" d="M197.8478,324.1449s-6.2915,13.8469-5.6345,40.4329-.0486,31.515-.0486,31.515,16.1538,6.6907,31.6711,1.806c17.17-5.4077,19.5919-7.551,19.5919-7.551s1.97-28.1357-5.253-54.8543l-3.939-13.7556S213.5788,328.9324,197.8478,324.1449Z" transform="translate(-4.9085 -7)"/><path class="cls-51" d="M234.9222,324.1449s-26.0573,15.949-23.7593,29.737-11.7035,44.397-11.7035,44.397l-7.2947-2.1861s.5892-22.186,0-32.4724-.6275-18.7655,5.6831-39.4784c0,0,15.2449,4.2954,36.385-2.407Z" transform="translate(-4.9085 -7)"/><path class="cls-5" d="M179.3961,314.0912s-1.4038,3.0153,0,4.5665,7.9546,5.0512,13.7305,11.1762c0,0,4.2381.7925,5.8349.305s.33,2.2538-3.0272,2.3746c0,0-2.2391,4.951-2.32,9.133,0,0-1.423-1.28-3.3483-6.8571,0,0-11.53-6.2695-19.5374-13.4875S172.8041,305.3661,179.3961,314.0912Z" transform="translate(-4.9085 -7)"/><path class="cls-35" d="M168.1978,317.7252s6.1633-.5642,9.8151,1.7574a24.2033,24.2033,0,0,0,6.5021,2.9756s-6.5316-4.1939-3.8727-8.3671C183.8477,309.065,168.1978,317.7252,168.1978,317.7252Z" transform="translate(-4.9085 -7)"/><path class="cls-4" d="M208.9445,269.31s3.1377,3.01,11.67-.6777c0,0,8.2021.4714,11.9231-2.046s17.07,15.4289,27.6849,14.4449c0,0,3.2821,12.9115-3.939,13.897,0,0-16.1964-4.7138-18.3839-5.8554,0,0-.657,3.0109,3.7195,7.6069s-4.8155,16.961-7.386,25.0585c0,0-23.1435,7.5495-36.385,2.407,0,0,3.1745-10.3955-3.282-24.5119,0,0-11.49,16.8519-13.5685,17.8374s-14.3359,6.7762-15.2109-.6569c0,0,21.01-38.1895,24.0744-40.9265a16.54,16.54,0,0,1,7.66-3.3881s7.878-1.3139,9.192-2.5175S208.9445,269.31,208.9445,269.31Z" transform="translate(-4.9085 -7)"/><path class="cls-52" d="M237.8993,289.0724l-3.3439-1.3125s.9855,5.664,5.991,12.7215c0,0,1.7883,2.2862-.8176,9.1493,0,0,5.5373-9.82,1.8841-12.9513C241.6261,296.6794,237.6253,292.5592,237.8993,289.0724Z" transform="translate(-4.9085 -7)"/><polygon class="cls-53" points="189.657 292.633 187.433 287.845 181.423 304.223 189.657 292.633"/><path class="cls-35" d="M195.9343,332.5164s-.6378-.52-.9384-.2195-1.691,8.9961-1.691,8.9961l.3093.3609Z" transform="translate(-4.9085 -7)"/><path class="cls-54" d="M201.8973,255.4245s5.7995-5.0335,9.192,1.5319-9.0314,7.8987-11.7846,4.9894S201.8973,255.4245,201.8973,255.4245Z" transform="translate(-4.9085 -7)"/><circle class="cls-39" cx="213.2795" cy="243.0021" r="1.6086"/><polygon class="cls-55" points="275.103 318.478 275.692 316.093 311.955 321.297 311.445 323.538 275.103 318.478"/><path class="cls-56" d="M520.2951,437.9944a.0737.0737,0,1,0-.0737-.0736A.0735.0735,0,0,0,520.2951,437.9944Z" transform="translate(-4.9085 -7)"/><path class="cls-15" d="M400.6637,281.5229v20.274l-8.4746-1.8664S397.7456,293.9969,400.6637,281.5229Z" transform="translate(-4.9085 -7)"/><path class="cls-57" d="M220.1369,325.1672s-16.7032,4.3426-24.0406,4.045c0,0,1.2978-4.87,1.7515-5.0673C197.8478,324.1449,205.7847,327.6935,220.1369,325.1672Z" transform="translate(-4.9085 -7)"/></g></g></svg>